<svg width="384" height="383.999986" xmlns="http://www.w3.org/2000/svg" version="1.0" preserveAspectRatio="xMidYMid meet" zoomAndPan="magnify">
 <defs>
  <g id="svg_1"/>
 </defs>
 <g>
  <title>Layer 1</title>
  <g stroke="null" id="svg_57">
   <path stroke="null" id="svg_2" fill-rule="nonzero" d="m144.44487,297.4922l-23.7796,0l0,-30.14144c0,-0.32968 -0.02985,-0.6565 -0.09227,-0.97758c-0.05971,-0.32394 -0.14927,-0.63929 -0.26868,-0.94317c-0.11942,-0.30388 -0.26597,-0.59343 -0.43966,-0.86864c-0.17369,-0.27521 -0.37181,-0.52749 -0.59165,-0.76256c-0.21983,-0.23221 -0.46137,-0.44148 -0.72191,-0.62496c-0.25782,-0.18061 -0.53193,-0.33541 -0.82232,-0.46156c-0.28768,-0.12614 -0.5835,-0.2236 -0.89017,-0.28668c-0.30668,-0.06594 -0.61607,-0.09747 -0.92817,-0.09747l-52.31132,0c-0.43151,0 -0.85489,0.0602 -1.27012,0.18347c-0.41524,0.1204 -0.80604,0.29815 -1.17514,0.53035c-0.3691,0.23508 -0.70291,0.51603 -0.99873,0.84571c-0.29854,0.32967 -0.54822,0.69376 -0.75176,1.09511c-0.20355,0.40135 -0.3501,0.82277 -0.44509,1.26713c-0.09499,0.44148 -0.13298,0.89157 -0.11127,1.34739c0.02171,0.45295 0.0977,0.89444 0.23339,1.32733c0.1357,0.43288 0.32296,0.8371 0.56179,1.21552l17.27155,27.35206l-17.26341,27.35493c-0.23883,0.37554 -0.42609,0.78263 -0.55907,1.21265c-0.1357,0.43288 -0.2144,0.87437 -0.2334,1.32732c-0.02171,0.45295 0.01357,0.90304 0.10856,1.34739c0.09499,0.44148 0.24154,0.8629 0.44509,1.26426c0.20355,0.40135 0.45051,0.76543 0.74905,1.09511c0.29582,0.32968 0.62693,0.61063 0.99602,0.84571c0.3691,0.23508 0.75991,0.41282 1.17513,0.53322c0.41252,0.12327 0.8359,0.18347 1.26741,0.18347l80.84575,0c0.3121,0 0.62149,-0.03154 0.92545,-0.09461c0.30668,-0.06593 0.60521,-0.16054 0.89289,-0.28668c0.28768,-0.12614 0.56178,-0.28094 0.82232,-0.46442c0.26054,-0.18347 0.49937,-0.39275 0.72192,-0.62497c0.21983,-0.23221 0.41795,-0.48735 0.59164,-0.7597c0.17369,-0.27521 0.31753,-0.56476 0.43966,-0.86864c0.11942,-0.30674 0.20897,-0.61923 0.26868,-0.94317c0.06242,-0.32395 0.09227,-0.65076 0.09227,-0.98044l0,-25.11596c0,-0.32967 -0.02985,-0.65649 -0.09227,-0.98044c-0.05971,-0.32395 -0.14926,-0.6393 -0.26868,-0.94318c-0.12213,-0.30388 -0.26597,-0.59342 -0.43966,-0.86864c-0.17369,-0.27521 -0.37181,-0.52749 -0.59164,-0.7597c-0.22255,-0.23508 -0.46138,-0.44148 -0.72192,-0.62496c-0.26054,-0.18347 -0.53465,-0.33828 -0.82232,-0.46442c-0.28768,-0.12614 -0.58621,-0.22361 -0.89289,-0.28668c-0.30396,-0.06307 -0.61335,-0.09747 -0.92545,-0.09747zm0,0" fill="#5e17eb"/>
   <path stroke="null" id="svg_3" fill-rule="nonzero" d="m307.08627,297.4922l17.26342,-27.35206c0.23883,-0.37842 0.42609,-0.78264 0.56178,-1.21266c0.13299,-0.43288 0.21169,-0.87437 0.2334,-1.33019c0.019,-0.45295 -0.01629,-0.90017 -0.11127,-1.34452c-0.09227,-0.44435 -0.24154,-0.86577 -0.44508,-1.26712c-0.20083,-0.39848 -0.45052,-0.76543 -0.74634,-1.09512c-0.29854,-0.32968 -0.62964,-0.61063 -0.99873,-0.84284c-0.3691,-0.23508 -0.75991,-0.41282 -1.17514,-0.53608c-0.41252,-0.12041 -0.83589,-0.18347 -1.2647,-0.18347l-52.31403,0c-0.3121,0 -0.6215,0.03153 -0.92546,0.09747c-0.30667,0.06307 -0.60521,0.16054 -0.89288,0.28668c-0.28768,0.12614 -0.56179,0.28095 -0.82233,0.46443c-0.26054,0.18061 -0.49937,0.38988 -0.72191,0.62209c-0.21983,0.23508 -0.41795,0.48735 -0.59164,0.76256c-0.17369,0.27521 -0.31753,0.56476 -0.43966,0.86864c-0.11942,0.30388 -0.20897,0.61923 -0.26868,0.94317c-0.06243,0.32108 -0.09227,0.6479 -0.09227,0.97758l0,30.14144l-23.77689,0c-0.3121,0 -0.62149,0.0344 -0.92817,0.09747c-0.30667,0.06307 -0.60521,0.16054 -0.89288,0.28668c-0.28768,0.12614 -0.56179,0.28094 -0.82233,0.46442c-0.26054,0.18347 -0.49937,0.38988 -0.71919,0.62496c-0.22255,0.23221 -0.41795,0.48449 -0.59165,0.7597c-0.17369,0.27521 -0.32024,0.56476 -0.43966,0.86864c-0.11941,0.30388 -0.21169,0.61923 -0.27139,0.94318c-0.05971,0.32394 -0.09228,0.65076 -0.09228,0.98044l0,25.11596c0,0.32968 0.03257,0.65649 0.09228,0.98044c0.0597,0.32394 0.15198,0.63643 0.27139,0.94317c0.11942,0.30389 0.26597,0.59343 0.43966,0.86864c0.17369,0.27234 0.3691,0.52749 0.59165,0.7597c0.21983,0.23221 0.45865,0.44149 0.71919,0.62497c0.26054,0.18347 0.53465,0.33828 0.82233,0.46442c0.28768,0.12614 0.58621,0.22074 0.89288,0.28668c0.30668,0.06307 0.61607,0.09461 0.92817,0.09461l80.84575,0c0.42881,0 0.85218,-0.0602 1.26741,-0.18061c0.41524,-0.12041 0.80604,-0.29815 1.17514,-0.53323c0.3691,-0.23221 0.70291,-0.51315 1.00144,-0.84283c0.29582,-0.32968 0.54551,-0.69377 0.74905,-1.09512c0.20355,-0.40135 0.35281,-0.82277 0.4478,-1.26712c0.09227,-0.44435 0.13027,-0.89158 0.10856,-1.34739c-0.019,-0.45295 -0.09771,-0.89731 -0.2334,-1.33019c-0.13299,-0.43002 -0.32025,-0.83424 -0.55907,-1.21265l-17.27427,-27.35493zm0,0" fill="#5e17eb"/>
   <path stroke="null" id="svg_4" fill-rule="nonzero" d="m253.82507,181.95189l-20.72098,0c-0.3121,0 -0.62149,-0.03153 -0.92817,-0.0946c-0.30668,-0.06594 -0.60521,-0.16054 -0.89289,-0.28668c-0.28768,-0.12614 -0.56178,-0.28094 -0.82232,-0.46442c-0.25782,-0.18347 -0.49937,-0.38988 -0.7192,-0.62496c-0.22254,-0.23221 -0.41795,-0.48735 -0.59164,-0.7597c-0.17369,-0.27521 -0.32025,-0.56476 -0.43966,-0.86864c-0.11942,-0.30675 -0.20897,-0.61923 -0.2714,-0.94318c-0.0597,-0.32394 -0.09227,-0.65076 -0.09227,-0.98044c0,-0.32967 0.03257,-0.65649 0.09227,-0.98044c0.06243,-0.32395 0.15198,-0.63643 0.2714,-0.94031c0.11941,-0.30675 0.26597,-0.59629 0.43966,-0.86864c0.17369,-0.27521 0.3691,-0.53035 0.59164,-0.76256c0.21983,-0.23221 0.46138,-0.44148 0.7192,-0.62496c0.26054,-0.18347 0.53465,-0.33828 0.82232,-0.46442c0.28768,-0.12614 0.58621,-0.22075 0.89289,-0.28668c0.30668,-0.06307 0.61607,-0.09461 0.92817,-0.09461l20.72098,0c1.40039,-0.00286 2.79808,-0.0774 4.19304,-0.2236c1.39497,-0.14621 2.77908,-0.36409 4.15234,-0.65363c1.37326,-0.28955 2.73295,-0.65076 4.07364,-1.08078c1.34068,-0.43002 2.65695,-0.92884 3.95151,-1.49647c1.29455,-0.56762 2.55925,-1.20119 3.79409,-1.90068c1.23756,-0.69663 2.43713,-1.45633 3.60141,-2.2791c1.16428,-0.82277 2.29057,-1.70574 3.37344,-2.64318c1.08286,-0.94031 2.11959,-1.93222 3.11018,-2.9786c0.99059,-1.04924 1.92961,-2.14436 2.81979,-3.2882c0.89017,-1.14385 1.72336,-2.33071 2.50226,-3.56056c0.77891,-1.23271 1.4981,-2.49984 2.1603,-3.80423c0.65949,-1.30439 1.25927,-2.64032 1.79663,-4.00778c0.53736,-1.36746 1.00958,-2.76072 1.41668,-4.17691c0.40709,-1.4162 0.74905,-2.8496 1.02316,-4.30019c0.27411,-1.45346 0.48308,-2.91553 0.62149,-4.38906c0.13841,-1.47066 0.20897,-2.94993 0.20897,-4.42919l0,-25.11596l-38.0441,0c-0.3121,0 -0.6215,-0.03441 -0.92817,-0.09747c-0.30668,-0.06594 -0.6025,-0.16054 -0.89289,-0.28668c-0.28768,-0.12614 -0.56178,-0.28094 -0.82232,-0.46442c-0.25783,-0.18347 -0.49937,-0.38988 -0.7192,-0.62496c-0.22254,-0.23221 -0.41795,-0.48736 -0.59164,-0.7597c-0.17369,-0.27521 -0.32025,-0.56476 -0.43966,-0.86864c-0.11942,-0.30389 -0.20897,-0.61923 -0.2714,-0.94318c-0.05971,-0.32395 -0.08956,-0.65076 -0.08956,-0.98044c0,-0.32968 0.02985,-0.65649 0.08956,-0.98044c0.06243,-0.32108 0.15198,-0.63643 0.2714,-0.94031c0.11941,-0.30675 0.26597,-0.59629 0.43966,-0.86864c0.17369,-0.27521 0.3691,-0.52749 0.59164,-0.76256c0.21983,-0.23221 0.46137,-0.44148 0.7192,-0.62496c0.26054,-0.18347 0.53465,-0.33828 0.82232,-0.46443c0.29039,-0.12614 0.58621,-0.22074 0.89289,-0.28381c0.30667,-0.06594 0.61607,-0.09748 0.92817,-0.09748l42.79894,0c0.31481,0 0.62421,0.03154 0.92817,0.09748c0.30667,0.06306 0.60521,0.15767 0.89288,0.28381c0.28768,0.12614 0.56179,0.28095 0.82233,0.46443c0.26054,0.18347 0.49937,0.39275 0.72191,0.62496c0.21983,0.23508 0.41795,0.48735 0.58892,0.76256c0.17369,0.27235 0.32025,0.56189 0.43966,0.86864c0.11941,0.30388 0.21168,0.61923 0.27139,0.94031c0.06243,0.32394 0.09227,0.65076 0.09227,0.98044l0,30.14145c-0.00271,0.90303 -0.02442,1.80894 -0.06513,2.71198c-0.04342,0.90304 -0.10856,1.80321 -0.19269,2.70338c-0.08413,0.90017 -0.18998,1.79461 -0.31753,2.68905c-0.12484,0.89444 -0.2714,1.78602 -0.43966,2.67185c-0.16827,0.88584 -0.35553,1.76881 -0.5645,2.64605c-0.20897,0.87724 -0.43695,1.74587 -0.68663,2.61164c-0.24969,0.86577 -0.51837,1.72294 -0.80604,2.57438c-0.29039,0.85144 -0.59707,1.69428 -0.92545,2.52852c-0.32839,0.83424 -0.67578,1.66274 -1.04216,2.47977c-0.36639,0.81703 -0.75176,1.62261 -1.15343,2.41958c-0.40438,0.79697 -0.82775,1.58533 -1.26741,2.35937c-0.43966,0.77404 -0.89832,1.53947 -1.37326,2.29057c-0.47494,0.75109 -0.96888,1.49073 -1.4791,2.21603c-0.51022,0.7253 -1.03672,1.43912 -1.57951,2.13862c-0.54279,0.69663 -1.10186,1.38179 -1.67722,2.05262c-0.57535,0.66797 -1.16428,1.32446 -1.76949,1.96376c-0.60521,0.63929 -1.22399,1.26139 -1.85905,1.86914c-0.63506,0.60776 -1.28098,1.19832 -1.94319,1.77168c-0.6622,0.57336 -1.33526,1.12952 -2.0246,1.66847c-0.68663,0.53896 -1.38682,1.05785 -2.09788,1.55953c-0.71106,0.50456 -1.43296,0.98618 -2.16844,1.45346c-0.73277,0.46442 -1.47639,0.90877 -2.23087,1.33592c-0.75448,0.42715 -1.51981,0.83424 -2.29328,1.22125c-0.77347,0.38702 -1.55509,0.75397 -2.34485,1.10085c-0.79248,0.34401 -1.59038,0.67083 -2.39642,0.97471c-0.80604,0.30675 -1.61752,0.59056 -2.43712,0.8543c-0.8169,0.26088 -1.64194,0.50456 -2.47241,0.7253c-0.83047,0.21788 -1.66365,0.41856 -2.50497,0.59629c-0.83861,0.17487 -1.67993,0.32968 -2.52669,0.46443c-0.84675,0.13474 -1.69621,0.24368 -2.54839,0.33541c-0.85218,0.08887 -1.70436,0.1548 -2.55926,0.20067c-0.85489,0.04587 -1.70979,0.0688 -2.56468,0.0688zm0,0" fill="#fcb316"/>
   <path stroke="null" id="svg_5" fill-rule="nonzero" d="m150.90135,181.95189l-20.72369,0c-0.85761,0 -1.7125,-0.02293 -2.5674,-0.0688c-0.85489,-0.04587 -1.70707,-0.1118 -2.55925,-0.20067c-0.85218,-0.09174 -1.70165,-0.20355 -2.54568,-0.33541c-0.84675,-0.13474 -1.69079,-0.28955 -2.5294,-0.46729c-0.83861,-0.17774 -1.6745,-0.37555 -2.50497,-0.59629c-0.83047,-0.22074 -1.65279,-0.46156 -2.4724,-0.7253c-0.81961,-0.26088 -1.63108,-0.54756 -2.43712,-0.85144c-0.80604,-0.30388 -1.60395,-0.6307 -2.39371,-0.97757c-0.78975,-0.34688 -1.57137,-0.71383 -2.34756,-1.10085c-0.77347,-0.38702 -1.5361,-0.7941 -2.29057,-1.21839c-0.75447,-0.42715 -1.4981,-0.87437 -2.23358,-1.33879c-0.73277,-0.46442 -1.45739,-0.94891 -2.16844,-1.45059c-0.71106,-0.50169 -1.41125,-1.02344 -2.09789,-1.5624c-0.68663,-0.53895 -1.3624,-1.09511 -2.02189,-1.66847c-0.66221,-0.57336 -1.31084,-1.16392 -1.94319,-1.77168c-0.63506,-0.60489 -1.25384,-1.22985 -1.85905,-1.86914c-0.60521,-0.63929 -1.19685,-1.29292 -1.76949,-1.96375c-0.57536,-0.66797 -1.13443,-1.35313 -1.67722,-2.05263c-0.54279,-0.69949 -1.06929,-1.41046 -1.57951,-2.13576c-0.51023,-0.72817 -1.00417,-1.46494 -1.4791,-2.2189c-0.47494,-0.7511 -0.9336,-1.51367 -1.37326,-2.2877c-0.44237,-0.7769 -0.86304,-1.5624 -1.26741,-2.35937c-0.40438,-0.79697 -0.78976,-1.6054 -1.15614,-2.42244c-0.36367,-0.81703 -0.71106,-1.64267 -1.03945,-2.47691c-0.32838,-0.83424 -0.63778,-1.67708 -0.92545,-2.52852c-0.29039,-0.85143 -0.55907,-1.7086 -0.80604,-2.57438c-0.24969,-0.86577 -0.48037,-1.73728 -0.68663,-2.61164c-0.20897,-0.87724 -0.39894,-1.76021 -0.5645,-2.64605c-0.16826,-0.88584 -0.31481,-1.77741 -0.44237,-2.67185c-0.12756,-0.89444 -0.23069,-1.79174 -0.31754,-2.68905c-0.08413,-0.90017 -0.14655,-1.80034 -0.18997,-2.70338c-0.04342,-0.90304 -0.06513,-1.80895 -0.06785,-2.71198l0,-30.14145c0,-0.32968 0.03257,-0.65649 0.09227,-0.98044c0.06243,-0.32108 0.15198,-0.63643 0.2714,-0.94031c0.11941,-0.30675 0.26597,-0.59629 0.43966,-0.86864c0.17369,-0.27521 0.3691,-0.52749 0.59164,-0.76256c0.21983,-0.23221 0.46138,-0.44148 0.7192,-0.62496c0.26054,-0.18347 0.53465,-0.33828 0.82232,-0.46443c0.28768,-0.12614 0.58621,-0.22074 0.89289,-0.28381c0.30668,-0.06594 0.61607,-0.09748 0.92817,-0.09748l42.79894,0c0.3121,0 0.62149,0.03154 0.92817,0.09748c0.30667,0.06306 0.60521,0.15767 0.89288,0.28381c0.28768,0.12614 0.56179,0.28095 0.82233,0.46443c0.26054,0.18347 0.49937,0.39275 0.71919,0.62496c0.22255,0.23508 0.41795,0.48735 0.59165,0.76256c0.17369,0.27235 0.32024,0.56189 0.43966,0.86864c0.11941,0.30388 0.21169,0.61923 0.27139,0.94031c0.05971,0.32394 0.09228,0.65076 0.09228,0.98044c0,0.32968 -0.03257,0.65649 -0.09228,0.98044c-0.0597,0.32395 -0.15198,0.63929 -0.27139,0.94318c-0.11942,0.30388 -0.26597,0.59342 -0.43966,0.86864c-0.17369,0.27234 -0.3691,0.52749 -0.59165,0.7597c-0.21983,0.23508 -0.45865,0.44148 -0.71919,0.62496c-0.26054,0.18347 -0.53465,0.33828 -0.82233,0.46442c-0.28768,0.12614 -0.58621,0.22074 -0.89288,0.28668c-0.30668,0.06306 -0.61607,0.09747 -0.92817,0.09747l-38.0441,0l0,25.11596c0.00271,1.47926 0.07056,2.95853 0.21168,4.42919c0.13841,1.47353 0.34468,2.93559 0.61878,4.38906c0.27411,1.45059 0.61607,2.88399 1.02316,4.30019c0.40709,1.41619 0.87932,2.80945 1.41668,4.17691c0.53736,1.36746 1.13714,2.70339 1.79663,4.00778c0.6622,1.30439 1.3814,2.57151 2.1603,3.80423c0.7789,1.22985 1.6148,2.41671 2.50226,3.56056c0.89017,1.14385 1.82921,2.23896 2.81979,3.2882c0.99059,1.04639 2.03003,2.03829 3.1129,2.9786c1.08286,0.93744 2.20644,1.82041 3.37072,2.64318c1.16428,0.82277 2.36656,1.58247 3.6014,2.2791c1.23485,0.69949 2.49955,1.33306 3.7941,1.90068c1.29455,0.56763 2.61353,1.06645 3.95422,1.49647c1.34068,0.43001 2.69766,0.79123 4.07092,1.08078c1.37597,0.28955 2.76009,0.50742 4.15234,0.65363c1.39497,0.14621 2.79265,0.22074 4.19577,0.2236l20.72369,0c0.3121,0 0.62149,0.03154 0.92817,0.09461c0.30667,0.06593 0.60521,0.16054 0.89288,0.28668c0.28768,0.12614 0.56179,0.28094 0.82233,0.46442c0.25782,0.18347 0.49937,0.39275 0.71919,0.62496c0.22255,0.23221 0.41795,0.48735 0.59165,0.76256c0.17369,0.27235 0.32024,0.56189 0.43966,0.86864c0.11941,0.30388 0.20897,0.61636 0.27139,0.94031c0.05971,0.32394 0.09228,0.65076 0.09228,0.98044c0,0.32968 -0.03257,0.6565 -0.09228,0.98044c-0.06242,0.32395 -0.15198,0.63643 -0.27139,0.94318c-0.11942,0.30388 -0.26597,0.59342 -0.43966,0.86864c-0.17369,0.27235 -0.3691,0.52749 -0.59165,0.7597c-0.21983,0.23508 -0.46137,0.44148 -0.71919,0.62496c-0.26054,0.18347 -0.53465,0.33828 -0.82233,0.46442c-0.28768,0.12614 -0.58621,0.22074 -0.89288,0.28668c-0.30668,0.06307 -0.61607,0.0946 -0.92817,0.0946zm0,0" fill="#fcb316"/>
   <path stroke="null" id="svg_6" fill-rule="nonzero" d="m258.5799,71.43709l-133.15979,0c-0.3121,0 -0.62149,0.03154 -0.92545,0.0946c-0.30668,0.06594 -0.60521,0.16054 -0.89289,0.28668c-0.28768,0.12614 -0.56178,0.28094 -0.82232,0.46442c-0.26054,0.18347 -0.49937,0.39275 -0.72191,0.62496c-0.21983,0.23221 -0.41795,0.48736 -0.59165,0.76257c-0.17098,0.27234 -0.31753,0.56189 -0.43694,0.86864c-0.12213,0.30388 -0.21169,0.61636 -0.2714,0.94031c-0.06242,0.32395 -0.09227,0.65076 -0.09227,0.98044l0,45.21217c-0.00814,3.17353 0.17369,6.33561 0.54822,9.48621c0.37181,3.1506 0.93089,6.26107 1.67722,9.33714c0.74905,3.0732 1.67722,6.0862 2.78451,9.03613c1.11,2.94993 2.39098,5.81672 3.84566,8.59464c1.45468,2.77792 3.06947,5.44691 4.8444,8.00695c1.77492,2.56291 3.69639,4.99395 5.76442,7.29885c2.06803,2.30203 4.26361,4.46072 6.59218,6.46748c2.32585,2.00962 4.76569,3.85297 7.31408,5.53578c1.46553,1.01484 2.86321,2.12429 4.19576,3.32261c1.33255,1.20119 2.5891,2.48551 3.76967,3.85297c1.18328,1.3646 2.27701,2.80372 3.28931,4.31452c1.00958,1.51367 1.9269,3.08466 2.75194,4.71874c0.82232,1.6312 1.54695,3.31114 2.17387,5.03981c0.62421,1.72868 1.14529,3.49176 1.56052,5.28923c0.41523,1.79748 0.72462,3.61503 0.92545,5.45551c0.20083,1.83761 0.2931,3.68096 0.27411,5.53004l0,9.2282c0,0.32968 0.03256,0.65649 0.09227,0.98044c0.06242,0.32395 0.15198,0.63929 0.2714,0.94318c0.11941,0.30388 0.26597,0.59342 0.43966,0.86864c0.17369,0.27521 0.3691,0.52749 0.59164,0.7597c0.21983,0.23508 0.46137,0.44148 0.7192,0.62496c0.26054,0.18347 0.53465,0.33828 0.82232,0.46442c0.28768,0.12614 0.58621,0.22361 0.89289,0.28668c0.30667,0.06306 0.61607,0.09747 0.92816,0.09747l28.53444,0c0.3121,0 0.62149,-0.03441 0.92545,-0.09747c0.30667,-0.06307 0.60521,-0.16054 0.89288,-0.28668c0.28768,-0.12614 0.56179,-0.28094 0.82233,-0.46442c0.26054,-0.18347 0.49937,-0.38988 0.72191,-0.62496c0.21983,-0.23221 0.41795,-0.48449 0.58893,-0.7597c0.17369,-0.27521 0.32024,-0.56476 0.43966,-0.86864c0.11941,-0.30389 0.21169,-0.61923 0.27139,-0.94318c0.06243,-0.32395 0.09228,-0.65076 0.09228,-0.98044l0,-9.2282c-0.019,-1.84908 0.07328,-3.69243 0.27411,-5.53004c0.20083,-1.84048 0.51022,-3.65803 0.92545,-5.45551c0.41524,-1.79747 0.93631,-3.56055 1.56323,-5.28923c0.62421,-1.72868 1.34883,-3.40861 2.17387,-5.03981c0.82232,-1.63408 1.73964,-3.20507 2.75194,-4.71874c1.00959,-1.5108 2.10602,-2.94993 3.28659,-4.31452c1.18057,-1.36746 2.43712,-2.65178 3.76967,-3.85297c1.33255,-1.19832 2.73295,-2.30777 4.19577,-3.32261c2.54839,-1.68281 4.98823,-3.52616 7.31408,-5.53578c2.32585,-2.00962 4.52415,-4.16545 6.59218,-6.46748c2.06803,-2.3049 3.9895,-4.73594 5.76443,-7.29885c1.77492,-2.56004 3.38971,-5.2319 4.84168,-8.00982c1.45468,-2.77792 2.73566,-5.64185 3.84566,-8.59177c1.11001,-2.94993 2.03818,-5.96293 2.78451,-9.03613c0.74905,-3.07606 1.30813,-6.18653 1.67993,-9.33714c0.37453,-3.1506 0.55636,-6.31268 0.54822,-9.48621l0,-45.21217c0,-0.32968 -0.02985,-0.65649 -0.09228,-0.98044c-0.0597,-0.32395 -0.14926,-0.63643 -0.26868,-0.94031c-0.11941,-0.30675 -0.26597,-0.59629 -0.43966,-0.86864c-0.17369,-0.27521 -0.37181,-0.53036 -0.59164,-0.76257c-0.21983,-0.23221 -0.46137,-0.44148 -0.72191,-0.62496c-0.25783,-0.18347 -0.53194,-0.33828 -0.82233,-0.46442c-0.28768,-0.12614 -0.5835,-0.22074 -0.89017,-0.28668c-0.30667,-0.06306 -0.61607,-0.0946 -0.92816,-0.0946zm0,0" fill="#ffcb29"/>
   <path stroke="null" id="svg_7" fill-rule="nonzero" d="m263.33474,51.34374l-142.66946,0c-0.4668,0 -0.9336,0.02293 -1.39768,0.07167c-0.46409,0.04873 -0.92817,0.1204 -1.38411,0.21787c-0.45865,0.09461 -0.91189,0.21501 -1.35969,0.35835c-0.4478,0.14335 -0.88746,0.30962 -1.31898,0.49882c-0.43151,0.18921 -0.85218,0.39848 -1.2647,0.6307c-0.41252,0.23508 -0.81147,0.48735 -1.19956,0.76256c-0.39081,0.27234 -0.76533,0.56763 -1.12629,0.88011c-0.36096,0.31248 -0.70563,0.64502 -1.03673,0.99191c-0.3311,0.34975 -0.6432,0.71383 -0.94174,1.09798c-0.29582,0.38128 -0.57264,0.77691 -0.83318,1.18685c-0.25782,0.40995 -0.49937,0.83424 -0.7192,1.26712c-0.21983,0.43575 -0.42066,0.88298 -0.59978,1.33879c-0.17912,0.45582 -0.33382,0.92024 -0.46951,1.39326c-0.1357,0.47015 -0.24968,0.94891 -0.34196,1.43339c-0.08956,0.48449 -0.16012,0.97184 -0.20354,1.46207c-0.04614,0.49309 -0.07057,0.98331 -0.07057,1.47927c0,0.49308 0.02443,0.98331 0.07057,1.4764c0.04342,0.49021 0.11398,0.97757 0.20354,1.46206c0.09228,0.48449 0.20626,0.96324 0.34196,1.43626c0.1357,0.47016 0.29039,0.93458 0.46951,1.3904c0.17913,0.45582 0.37996,0.90303 0.59978,1.33879c0.21983,0.43289 0.46138,0.85717 0.7192,1.26713c0.26054,0.40995 0.53736,0.80556 0.83318,1.18685c0.29854,0.38415 0.61064,0.74824 0.94174,1.09799c0.3311,0.34688 0.67577,0.67943 1.03673,0.99191c0.36095,0.31248 0.73548,0.60776 1.12629,0.88011c0.38809,0.27521 0.78704,0.53036 1.19956,0.76256c0.41252,0.23221 0.83318,0.44148 1.2647,0.6307c0.43152,0.18921 0.87118,0.35548 1.31898,0.49882c0.4478,0.14335 0.90103,0.26375 1.35969,0.35836c0.45594,0.09747 0.92003,0.16913 1.38411,0.21787c0.46409,0.04874 0.93088,0.07167 1.39768,0.07167l142.66946,0c0.4668,0 0.9336,-0.02293 1.39768,-0.07167c0.4668,-0.04874 0.92817,-0.1204 1.38683,-0.21787c0.45865,-0.09461 0.90917,-0.21501 1.35697,-0.35836c0.4478,-0.14334 0.88746,-0.30961 1.31898,-0.49882c0.43151,-0.18921 0.85218,-0.39848 1.2647,-0.6307c0.41252,-0.23221 0.81419,-0.48735 1.20228,-0.76256c0.3881,-0.27234 0.76262,-0.56763 1.12358,-0.88011c0.36095,-0.31248 0.70834,-0.64503 1.03673,-0.99191c0.3311,-0.34975 0.64591,-0.71383 0.94174,-1.09799c0.29582,-0.38128 0.57264,-0.7769 0.83318,-1.18685c0.26054,-0.40996 0.49937,-0.83424 0.7192,-1.26713c0.21983,-0.43575 0.42066,-0.88297 0.59978,-1.33879c0.17912,-0.45582 0.33653,-0.92024 0.47223,-1.3904c0.1357,-0.47302 0.24697,-0.95177 0.33924,-1.43626c0.09227,-0.48448 0.16012,-0.97184 0.20626,-1.46206c0.04613,-0.49309 0.06784,-0.98331 0.06784,-1.4764c0,-0.49595 -0.02171,-0.98618 -0.06784,-1.47927c-0.04614,-0.49022 -0.11399,-0.97757 -0.20626,-1.46207c-0.09227,-0.48448 -0.20355,-0.96324 -0.33924,-1.43339c-0.1357,-0.47302 -0.29311,-0.93744 -0.47223,-1.39326c-0.17912,-0.45582 -0.37995,-0.90304 -0.59978,-1.33879c-0.21983,-0.43288 -0.45866,-0.85717 -0.7192,-1.26712c-0.26054,-0.40995 -0.53736,-0.80557 -0.83318,-1.18685c-0.29583,-0.38414 -0.61064,-0.74823 -0.94174,-1.09798c-0.32839,-0.34688 -0.67578,-0.67943 -1.03673,-0.99191c-0.36095,-0.31248 -0.73548,-0.60776 -1.12358,-0.88011c-0.38809,-0.27521 -0.78976,-0.52749 -1.20228,-0.76256c-0.41252,-0.23221 -0.83318,-0.44149 -1.2647,-0.6307c-0.43151,-0.18921 -0.87118,-0.35548 -1.31898,-0.49882c-0.4478,-0.14334 -0.89832,-0.26374 -1.35697,-0.35835c-0.45866,-0.09747 -0.92003,-0.16914 -1.38683,-0.21787c-0.46408,-0.04874 -0.93088,-0.07167 -1.39768,-0.07167zm0,0" fill="#fcb316"/>
   <path stroke="null" id="svg_8" fill-rule="nonzero" d="m115.91044,227.16406l152.17913,0c0.3121,0 0.62149,0.03154 0.92816,0.09748c0.30668,0.06306 0.60521,0.15767 0.89289,0.28381c0.28768,0.12901 0.56178,0.28095 0.82232,0.46443c0.26054,0.18347 0.49937,0.39275 0.7192,0.62496c0.22254,0.23508 0.41795,0.48735 0.59164,0.76256c0.17369,0.27521 0.32025,0.56476 0.43966,0.86864c0.11942,0.30388 0.21169,0.61923 0.2714,0.94317c0.05971,0.32108 0.09227,0.64789 0.09227,0.97757l0,70.33099c0,0.32968 -0.03256,0.6565 -0.09227,0.97758c-0.05971,0.32394 -0.15198,0.63929 -0.2714,0.94317c-0.11941,0.30388 -0.26597,0.59343 -0.43966,0.86864c-0.17369,0.27521 -0.3691,0.52749 -0.59164,0.76256c-0.21983,0.23221 -0.45866,0.44148 -0.7192,0.62496c-0.26054,0.18061 -0.53465,0.33541 -0.82232,0.46156c-0.28768,0.129 -0.58621,0.2236 -0.89289,0.28668c-0.30667,0.06594 -0.61607,0.09747 -0.92816,0.09747l-152.17913,0c-0.3121,0 -0.62149,-0.03153 -0.92817,-0.09747c-0.30667,-0.06307 -0.6025,-0.15767 -0.89288,-0.28668c-0.28768,-0.12614 -0.56179,-0.28095 -0.82233,-0.46156c-0.25782,-0.18347 -0.49937,-0.39275 -0.71919,-0.62496c-0.22255,-0.23508 -0.41795,-0.48735 -0.59165,-0.76256c-0.17369,-0.27521 -0.32024,-0.56476 -0.43966,-0.86864c-0.11941,-0.30388 -0.20897,-0.61923 -0.27139,-0.94317c-0.05971,-0.32108 -0.08956,-0.6479 -0.08956,-0.97758l0,-70.33099c0,-0.32968 0.02985,-0.65649 0.08956,-0.97757c0.06242,-0.32394 0.15198,-0.63929 0.27139,-0.94317c0.11942,-0.30389 0.26597,-0.59343 0.43966,-0.86864c0.17369,-0.27521 0.3691,-0.52749 0.59165,-0.76256c0.21983,-0.23221 0.46137,-0.44148 0.71919,-0.62496c0.26054,-0.18347 0.53465,-0.33541 0.82233,-0.46443c0.29039,-0.12614 0.58621,-0.22074 0.89288,-0.28381c0.30668,-0.06594 0.61607,-0.09748 0.92817,-0.09748zm0,0" fill="#8c52ff"/>
   <g stroke="null" id="svg_9" fill="#ff00ff">
    <g stroke="null" id="svg_10">
     <g stroke="null" id="svg_11">
      <path stroke="null" id="svg_12" d="m125.88785,252.58807c-3.12104,0 -5.67215,2.69766 -5.67215,5.99446l0,23.96925l5.67215,0l0,-11.98605l17.01916,0l0,11.98605l5.67215,0l0,-23.96925c0,-3.2968 -2.55111,-5.99446 -5.67215,-5.99446l-17.01916,0zm0,5.99446l17.01916,0l0,5.9916l-17.01916,0l0,-5.9916zm0,0"/>
     </g>
    </g>
   </g>
   <g stroke="null" id="svg_13" fill="#ff00ff">
    <g stroke="null" id="svg_14">
     <g stroke="null" id="svg_15">
      <path stroke="null" id="svg_16" d="m185.38362,252.58807l-22.69131,0c-3.12104,0 -5.67215,2.69766 -5.67215,5.99446l0,17.97765c0,3.29394 2.55111,5.99159 5.67215,5.99159l17.01916,0c3.15631,0 5.67215,-2.73492 5.67215,-5.99159l0,-11.98605l-17.01916,0l0,5.99159l11.34702,0l0,5.99446l-17.01916,0l0,-17.97765l22.69131,0l0,-5.99446zm0,0"/>
     </g>
    </g>
   </g>
   <g stroke="null" id="svg_17" fill="#ff00ff">
    <g stroke="null" id="svg_18">
     <g stroke="null" id="svg_19">
      <path stroke="null" id="svg_20" d="m216.51591,282.55178c3.15631,0 5.67215,-2.73492 5.67215,-5.99159l0,-17.97765c0,-3.2968 -2.55111,-5.99446 -5.67215,-5.99446l-17.01916,0c-3.12104,0 -5.67215,2.69766 -5.67215,5.99446l0,17.97765c0,3.29394 2.55111,5.99159 5.67215,5.99159l17.01916,0zm-17.01916,-23.96925l17.01916,0l0,17.97765l-17.01916,0l0,-17.97765zm0,0"/>
     </g>
    </g>
   </g>
   <g stroke="null" id="svg_21" fill="#ff00ff">
    <g stroke="null" id="svg_22">
     <g stroke="null" id="svg_23">
      <path stroke="null" id="svg_24" d="m236.30121,282.55178l0,-19.73786l17.83606,18.83769c0.53193,0.56189 1.24027,0.90017 2.01918,0.90017c1.56052,0 2.83607,-1.34739 2.83607,-2.9958l0,-26.96791l-5.67215,0l0,19.73787l-17.83606,-18.83769c-0.53193,-0.56189 -1.24028,-0.90018 -2.01918,-0.90018c-1.56052,0 -2.83607,1.35026 -2.83607,2.9958l0,26.9679l5.67215,0zm0,0"/>
     </g>
    </g>
   </g>
   <g stroke="null" id="svg_25" fill="#00ffff">
    <g stroke="null" id="svg_26">
     <g stroke="null" id="svg_27">
      <path stroke="null" id="svg_28" d="m130.2064,253.64123c-3.12104,0 -5.67215,2.69766 -5.67215,5.99446l0,23.96925l5.67215,0l0,-11.98605l17.01916,0l0,11.98605l5.67215,0l0,-23.96925c0,-3.2968 -2.55111,-5.99446 -5.67215,-5.99446l-17.01916,0zm0,5.99446l17.01916,0l0,5.9916l-17.01916,0l0,-5.9916zm0,0"/>
     </g>
    </g>
   </g>
   <g stroke="null" id="svg_29" fill="#00ffff">
    <g stroke="null" id="svg_30">
     <g stroke="null" id="svg_31">
      <path stroke="null" id="svg_32" d="m189.70216,253.64123l-22.69131,0c-3.12104,0 -5.67215,2.69766 -5.67215,5.99446l0,17.97765c0,3.29394 2.55111,5.99159 5.67215,5.99159l17.01916,0c3.15631,0 5.67215,-2.73492 5.67215,-5.99159l0,-11.98605l-17.01916,0l0,5.99159l11.34702,0l0,5.99446l-17.01916,0l0,-17.97765l22.69131,0l0,-5.99446zm0,0"/>
     </g>
    </g>
   </g>
   <g stroke="null" id="svg_33" fill="#00ffff">
    <g stroke="null" id="svg_34">
     <g stroke="null" id="svg_35">
      <path stroke="null" id="svg_36" d="m220.83446,283.60494c3.15631,0 5.67215,-2.73492 5.67215,-5.99159l0,-17.97765c0,-3.2968 -2.55111,-5.99446 -5.67215,-5.99446l-17.01916,0c-3.12104,0 -5.67215,2.69766 -5.67215,5.99446l0,17.97765c0,3.29394 2.55111,5.99159 5.67215,5.99159l17.01916,0zm-17.01916,-23.96925l17.01916,0l0,17.97765l-17.01916,0l0,-17.97765zm0,0"/>
     </g>
    </g>
   </g>
   <g stroke="null" id="svg_37" fill="#00ffff">
    <g stroke="null" id="svg_38">
     <g stroke="null" id="svg_39">
      <path stroke="null" id="svg_40" d="m240.61975,283.60494l0,-19.73786l17.83606,18.83769c0.53193,0.56189 1.24027,0.90017 2.01918,0.90017c1.56052,0 2.83607,-1.34739 2.83607,-2.9958l0,-26.96791l-5.67215,0l0,19.73787l-17.83606,-18.83769c-0.53193,-0.56189 -1.24028,-0.90018 -2.01918,-0.90018c-1.56052,0 -2.83607,1.35026 -2.83607,2.9958l0,26.9679l5.67215,0zm0,0"/>
     </g>
    </g>
   </g>
   <g stroke="null" id="svg_41" fill="#ffffff">
    <g stroke="null" id="svg_42">
     <g stroke="null" id="svg_43">
      <path stroke="null" id="svg_44" d="m128.04713,253.11466c-3.12104,0 -5.67215,2.69766 -5.67215,5.99446l0,23.96925l5.67215,0l0,-11.98605l17.01916,0l0,11.98605l5.67215,0l0,-23.96925c0,-3.2968 -2.55111,-5.99446 -5.67215,-5.99446l-17.01916,0zm0,5.99446l17.01916,0l0,5.9916l-17.01916,0l0,-5.9916zm0,0"/>
     </g>
    </g>
   </g>
   <g stroke="null" id="svg_45" fill="#ffffff">
    <g stroke="null" id="svg_46">
     <g stroke="null" id="svg_47">
      <path stroke="null" id="svg_48" d="m187.54289,253.11466l-22.69131,0c-3.12104,0 -5.67215,2.69766 -5.67215,5.99446l0,17.97765c0,3.29394 2.55111,5.99159 5.67215,5.99159l17.01916,0c3.15631,0 5.67215,-2.73492 5.67215,-5.99159l0,-11.98605l-17.01916,0l0,5.99159l11.34702,0l0,5.99446l-17.01916,0l0,-17.97765l22.69131,0l0,-5.99446zm0,0"/>
     </g>
    </g>
   </g>
   <g stroke="null" id="svg_49" fill="#ffffff">
    <g stroke="null" id="svg_50">
     <g stroke="null" id="svg_51">
      <path stroke="null" id="svg_52" d="m218.67519,283.07837c3.15631,0 5.67215,-2.73492 5.67215,-5.99159l0,-17.97765c0,-3.2968 -2.55111,-5.99446 -5.67215,-5.99446l-17.01916,0c-3.12104,0 -5.67215,2.69766 -5.67215,5.99446l0,17.97765c0,3.29394 2.55111,5.99159 5.67215,5.99159l17.01916,0zm-17.01916,-23.96925l17.01916,0l0,17.97765l-17.01916,0l0,-17.97765zm0,0"/>
     </g>
    </g>
   </g>
   <g stroke="null" id="svg_53" fill="#ffffff">
    <g stroke="null" id="svg_54">
     <g stroke="null" id="svg_55">
      <path stroke="null" id="svg_56" d="m238.46048,283.07837l0,-19.73786l17.83606,18.83769c0.53193,0.56189 1.24027,0.90017 2.01918,0.90017c1.56052,0 2.83607,-1.34739 2.83607,-2.9958l0,-26.96791l-5.67215,0l0,19.73787l-17.83606,-18.83769c-0.53193,-0.56189 -1.24028,-0.90018 -2.01918,-0.90018c-1.56052,0 -2.83607,1.35026 -2.83607,2.9958l0,26.9679l5.67215,0zm0,0"/>
     </g>
    </g>
   </g>
  </g>
 </g>
</svg>