<?xml version="1.0" encoding="UTF-8"?>
<svg id="uuid-d6795913-6771-4a75-9fef-ea2e1d96ab6c" data-name="Capa 3" xmlns="http://www.w3.org/2000/svg" viewBox="0 0 504.5 330">
  <path d="m490.5,216c0-.1,0-.2,0-.3-1.1-4.6-1-9.7.6-14.2,1.3-3.5,3.4-6.5,3.8-10.4.8-6.7-2.5-12.9-4.8-19-3.1-8.2-1.3-15.6-.8-24.1.4-7.2,1.6-14.6,1.3-21.8-1-19.5-14.7-37.3-27.4-51.1-33.5-36.5-84.7-54.1-132.3-62.2-55.7-9.5-113.7-9.5-169.2,1.6-13.2,2.6-26.2,6-39,10.1-27.9,8.9-54.8,22.3-76.4,42.4-4.1,3.8-8,7.9-11.7,12.2-2.6,3.1-5,6.2-7.3,9.5-2.3,3.4-4.5,6.9-6.4,10.5-7.3,13.7-8,27.3-7.2,42.5.3,6.6,1.7,13.2,1.6,19.8-.1,6.3-2.7,11.8-4.5,17.8-1.9,6.6-1.1,12.4.6,18.9,1.8,6.9,2.9,12.9,1.2,19.9-3,12.3-1.6,22.1-.1,34.5,1,8.8.1,17.7,0,26.5-.3,10.8.6,21.6-.2,32.4-.4,5.3-.6,8.8,5.6,8.8,71.2,0,142.7,0,213.4,0v-34.7c0-10.9,8.8-19.7,19.6-19.7s19.6,8.9,19.6,19.7v34.3c21.6-.7,38.6-.1,49.5.5,0,0,72.8,3.9,164.3,1.6,1.3,0,4.5,3.4,6.1,1.3,1.2-1.6.7-7.2.7-8.1,0-8.2-.6-16.4-.2-24.6.2-4.2.8-8.3,1.8-12.3,1.3-5.4-1.6-9.3-1.9-14.4-.6-7.7-.2-16.9,1-24.5.6-3.7,2.7-7.3,3.1-10.9.4-4.1-3.3-8.3-4.4-12.3Zm-7.6-31.5c1.6,8.5,1.2,16.9,1.2,25.4-.7,0-1.4,0-2.2,0-.3-8.5-.3-16.9.9-25.4Zm-9.7-5.9c0-.1,0-.3.1-.4.5-1.7,2-2.1,2.8-.6.7,1.3.9,3,1.1,4.4.4,3.4.4,6.9.4,10.4,0,2.1,0,4.1,0,6.2,0,.7.4,6.7,0,6.8-1.9.9-3.1-.8-3.9-2.4-.5-1-.6-2.1-.6-3.2-.1-5,.5-10,.3-14.9-.1-2-.5-4.1,0-6.2ZM25,251.4c0-2.9,0-5.9.2-8.8,0-.7.1-1.5.2-2.2.1-1.7.4-3.4,1-5,.4-1.2,1.1-2.5,1.9-3.4.4-.4,1-.9,1.6-.7.9.2.9,1.4.9,2.1,0,6.2,0,12.4,0,18.7,0,2.8.5,6.5-2.2,8.3-3.7,2.5-3.6-7.2-3.6-8.9Zm-7.7,13.3c-1.9-.5-1.5-3.5-1.3-4.9.3-2.7.3-5.4.3-8.1,0-3.5-.2-7.1.4-10.6.2-1.4.5-2.9,1.3-4,.3-.5.8-1,1.5-1,1.5.2,1.1,2.4,1,3.5,0,.9,0,1.8,0,2.7,0,6,0,12-.1,18.1,0,1.2-.4,2.4-1,3.4-.3.6-1.6,1-2.2.9Zm5,48.3c-.4,2.3-1,3.8-2.1,3.6-.7-.2-1-2.1-1.1-2.7-.7-3.1-.8-6.3-.8-9.5,0-4.7.4-9.4.8-14.1.1-1.6,0-3.5.8-4.9,1.1-2.1,2.3-.6,2.7,1,.5,2,.2,4.1.2,6.1,0,2.3,0,4.7,0,7,0,1.1.3,8.9-.5,13.6Zm.9-121.9c-.2,4.2-.3,6.2-.4,7.6-.2,2.4,1.3,9.5-2.4,9.9-.7,0-.9-14.8-.9-15.9,0-1.5,0-2.9-.2-4.4,0-1.3,0-3.1,1.5-3.7,3.2-1.3,2.4,4.9,2.4,6.4Zm4.6,126c-2.4.1-3-1.3-3-3.2,0-8.5.1-16.9.3-25.4,0-1.6.7-3.4,1.5-4.8.4-.7,1.9-1.5,2.6-1.3.7.2,1.6,1.4,1.6,2.3.1,4.9,0,9.7,0,14.6h0c0,4.9,0,9.5,0,14.1,0,2.3-.8,3.6-3.1,3.7Zm3-115.8c-.2.8-.5,1.7-1,2.4-.6.9-1.7,2-2.8,1-1.2-1-.3-3.7-.3-5,0-6.2-.6-12.8.2-18.9.3-2.5,2.5-4.6,3.9-1.4,1.1,2.6.2,5.7.2,8.4,0,4.4.7,9-.3,13.4Zm13,88.6c0,1-.4,9.5-.3,9.5h0c0,4.9,0,9.5,0,14.1,0,3.1-2.3,2.8-4.2,2.7-2,0-5.1.9-5.1-2.5.1-6.9.7-13.8.7-20.7,0-2.9,0-6,1.3-8.7,1.1-2.2,3.3-4.4,5.5-2.1,1.9,2,2.1,5,2,7.6Zm12.9,26.3c-10.2,0-8.3.3-8.1-7.9.1-7.3.9-14.6,1.5-21.9,0-.9.5-1.9,1.1-2.7,1.4-2,3-4.3,5.9-3.2,2.6.9,3.3,3.3,3.2,6-.1,4.3,0,8.6,0,12.9,0,4.3-.1,8.6,0,12.9.1,2.8-.7,4-3.7,4Zm22.4.2c-3.1,0-6.2,0-9.2,0-2.1,0-2.8-.9-2.8-2.9,0-7.7-.3-15.5.2-23.2.3-3.6,1.8-7.4,3.9-10.4,1.2-1.8,4.6-3,6.9-2.8,3,.3,4.6,3.3,4.7,6.4.1,3.2.2,6.4.2,9.6v5.5c0,4.7-.3,9.4-.2,14,0,2.7-1.1,3.9-3.8,3.8Zm28.5.5c-3.9-.2-7.9,0-11.8,0-2.3,0-3.3-.9-3.3-3.3.1-8.1-.3-16.3.3-24.3.3-3.8,2-7.8,3.8-11.2,1.8-3.3,6.4-4.5,9.3-3.5,3,1.1,5.3,4.7,5.4,8.5,0,5,0,10.1,0,15.1s-.1,9.8,0,14.8c0,2.8-.8,4.1-3.8,4Zm37.7-2.6c0,2.4-.9,3.5-3.5,3.4-5-.2-10.1-.1-15.1,0-2,0-3.6-.5-3.6-2.7.2-10.4.3-20.8,1-31.2.2-3.5,2.7-6.4,6.1-8.3,7.1-4,14.6,0,15.1,8.2.1,2.6,0,5.2,0,7.7,0,2.5,0,4.9,0,7.4,0,5.2,0,10.3,0,15.5Zm34.6,3.8c-6-.1-12-.1-18.1,0-2.9,0-3.8-1.3-3.8-4,.1-7.9-.2-15.7.2-23.6.2-3.7,1.2-7.6,2.9-10.8,3-5.6,8-7.2,14.1-5.7,4.2,1,7.4,5.7,7.7,11.4.1,2.6,0,5.2,0,7.7,0,2.5,0,4.9,0,7.4,0,4.8,0,9.6,0,14.4,0,2.3-.8,3.3-3.2,3.3Zm39.7-1.2c-5.8-.1-11.6.1-17.3-.2-1.3,0-3.7-1.6-3.7-2.4,0-10.1,0-20.2,1-30.2.6-6.7,6.3-10.5,12.8-10.1,5.5.4,10,5.4,10.4,11.7.3,4.8,0,9.7,0,14.6h.1c0,3.9,0,8.7,0,13.1,0,2.4-.7,3.5-3.4,3.4Zm81.9,0c-5.8-.1-11.6,0-17.3,0-2.6,0-3.7-1-3.7-3.8.1-8.1-.1-16.2.2-24.3.1-3,.8-6.2,2.1-8.8,2.4-4.9,7.2-6.7,12.4-5.6,4.7,1,9.1,5.9,9.5,11.4.4,4.9,0,9.8,0,14.7h.2c0,3.9,0,8.7,0,13,0,2.5-.9,3.6-3.5,3.5Zm43.8-2.6c0,2.9-.9,3.9-3.9,3.8-5.8-.2-11.5-.1-17.3,0-2.8,0-4-.9-3.9-3.9,0-2.4,0-4.7,0-7.1,0-8.6-.3-17.4,1.4-25.9.9-4.9,4.6-7.3,9.1-7.7,5.2-.4,9.7,1.3,11.9,6.2,1.4,3.1,2.3,6.8,2.5,10.2.4,8.1,0,16.2.2,24.3Zm-111.8-59.6c-49.2,0-98.4,1.8-147.5,5-13.9.9-27.6,2.7-41.5,4.2-3.7.4-7.3,1.2-11,1.8,0-.4-.2-.8-.2-1.2,3.4-.9,6.7-2,10.1-2.6,11.8-1.8,23.5-3.6,35.4-4.9,17.4-1.9,34.7-3.7,52.1-4.8,26-1.6,52.1-2.8,78.1-3.7,21.1-.8,42.3-1.6,63.4-1.1,34.5.8,69.1,2.1,103.6,4.1,19.2,1.1,38.4,3.6,57.6,6.1,11.4,1.5,22.6,4.2,34,6.4.4,0,.8.4,1.2.7,0,.3-.1.6-.2.9-1.8-.1-3.6,0-5.4-.3-36.1-6.7-72.8-8.5-109.3-9.6-40.1-1.1-80.2-.9-120.3-.9Zm-198.4-8.6c.3-4.2.1-8.3.2-12.5,0-1.7.4-3.8,1.9-4.9,0,0,.2-.1.3-.2,1.9-1.2,4.7-.4,5.8,1.5,1.4,2.6.4,6.7.3,9.5,0,3.7,0,7.5-.1,11.2,0,2,0,4.6-1.8,6-1.4,1-4.9,1.7-6.2,0-1-1.3-.5-3.2-.5-4.6,0-2,0-4.1,0-6.1Zm25.7-69.4c0,1.9.2,3.8.3,5.8,0,2.5-.2,5.6-2.5,7.1-1.9,1.3-6.9,3.8-7.2,0-.3-3.1.2-6.5.2-9.7,0-3.3.1-6.7.2-10,.1-3.1.5-9.8,5.1-9.1,4.6.7,3.9,9.2,3.8,12.4,0,1.2,0,2.3,0,3.5Zm21.7,13.7c11-2.7,22.1-4.7,33.3-6.5,31-4.9,62.3-7.7,93.6-8.2,33.7-.6,67.4-.2,101.1.4,14,.2,28,1.8,41.9,3.5,15.2,2,30.4,4.7,45.4,7.5,10.1,1.9,20.2,4.3,30.1,7.1,9.9,2.8,19.5,6.4,29.2,9.8,3.2,1.1,6.3,2.4,9.4,3.6-.1.4-.2.8-.3,1.1-3.2-.9-6.5-1.8-9.7-2.8-8.2-2.5-16.3-5.3-24.6-7.3-11.7-2.8-23.5-5.3-35.3-7.3-13-2.2-26-4.5-39.1-5.4-26.6-1.9-53.3-3.3-79.9-4.1-19.8-.6-39.6-.4-59.4.3-26.5.9-53.1,2-79.6,4.2-19.4,1.7-38.8,4.6-58,8.3-13.7,2.7-27.1,7.6-40.6,11.5-1.1.3-2.2.3-3.3.5,0-.3-.2-.7-.2-1,3.9-1.7,7.8-3.7,11.8-5,11.3-3.6,22.6-7.2,34.1-10.1Zm-13.3-6.9c0-2.1,0-4.3.1-6.4.1-4.1.2-8.2.5-12.4.3-3.3.4-7.2,2.6-9.9,2.9-3.6,8-3.3,10,1,1.4,2.9,1.4,6.1,1.5,9.3.2,3.7.4,7.3.3,11,0,.8,0,1.5-.2,2.3-.4,2.5-1.5,4.7-4.1,6-2,.9-4.1,1.3-6.2,1.7-2.7.6-4.6.9-4.6-2.5Zm43.7-11.8c0,2.8.5,6.1-3.1,6.7-2.4.4-4.8.9-7.1,1.3-2,.3-4.5,1.2-6.5,1-3.6-.4-2.5-6.2-2.4-8.6.2-4.2.2-8.3.3-12.5,0-3.5-.1-7.3,1.8-10.4,2.2-3.6,6.9-7,11.3-5.1,5,2.2,5.6,8.2,5.8,13,.1,2.1,0,4.2,0,6.3,0,.3,0,.5,0,.8,0,2.5,0,5,0,7.5Zm13.2-23.1c.2-2.9,2.1-6,4-8.4,2.7-3.4,6.8-4.1,10.7-2.6,3.6,1.4,5.8,4.6,6.1,8.5.3,4.3,0,8,0,12.9h.1c0,3.9.2,7.6-.1,11.4-.3,3.7-4.7,3.4-7.3,3.8-2.3.3-4.7.5-7,.8-1.7.2-3.9.8-5.5-.2-2.3-1.4-1.4-4.8-1.4-7,0-6.4-.1-12.9.3-19.3Zm59.2,6.6c0,3.9,0,8.2,0,12.4,0,2.3-.9,3.2-3.3,3.4-5.1.4-10.3.9-15.4,1.5-2,.2-3.7-.1-3.7-2.4.2-10-.2-20.2,1-30.1,1-8,10.8-11.7,16.7-6.7,2,1.7,3.7,4.9,4.1,7.6.7,4.7.2,9.6.2,14.5h.3Zm16.6-14.7c.6-9.5,8.7-15.1,17.6-12.1,4.7,1.6,7.3,5.3,7.6,9.9.5,9.3.4,18.7.3,28,0,.9-1.7,2.4-2.7,2.5-6.7.4-13.5.7-20.2.6-.9,0-2.4-2.1-2.5-3.2-.3-4.3-.1-8.1-.1-13h0c0-3.9-.2-8.5,0-12.8Zm62.6,25.8c-1.3,1.6-3.4,1.4-5.2,1.4-2,0-4.1,0-6.1,0-4.1,0-8.2,0-12.3,0-5.7,0-3.2-10.4-3.2-13.9,0-6.8.3-13.6,2-20.2,1.5-5.9,6.8-8.2,14.2-7.5,5.6.5,10.5,4.3,10.9,9.7.3,4.9.5,9.8.5,14.7,0,2.5,0,4.9,0,7.4,0,1.2,0,2.5,0,3.7,0,1.5.2,3.3-.8,4.6Zm11.1-16.7c0-1.1,0-2.2,0-3.3.1-5.3.5-11.5,4.4-15.5,2.3-2.3,5.6-3.3,8.8-3.2,3.3,0,6.7,1.3,9,3.7,2.8,2.9,3.3,6.8,3.7,10.6.5,4.8.4,9.8.4,14.6,0,2.5,0,4.9,0,7.4,0,.5,0,1.2,0,1.8,0,1.1,0,2.1-.7,2.9-1.1,1.2-3,.9-4.4.9-2.5,0-4.9-.2-7.4-.2-2.5,0-4.9-.1-7.4-.2-1.6,0-3.6.3-5-.6-1.2-.7-1.3-2.2-1.2-3.5.3-5.1-.1-10.2-.2-15.4Zm65.2,7.5c0,3.9,0,8.1,0,12.3,0,2.6-1,3.3-3.6,3-5.2-.7-10.5-1.2-15.8-1.6-2.4-.2-3.5-1.1-3.5-3.7,0-8-.2-16,.1-24,.2-4.8,1.9-9.3,6.6-11.5,3.6-1.7,7.3-1,10.4,1.3,3.8,2.8,5.4,7.1,5.6,11.7.2,4,0,8.4,0,12.4h0Zm15.3-6.2c0-.4,0-.7,0-1.1.3-3.9,1-8.5,4.4-10.9,3.4-2.5,8.6-2.2,12,.2,4.2,2.9,4.6,8.1,5,12.8.3,4.9.5,9.8.4,14.8,0,1.9,0,3.8,0,5.7,0,2.2-.8,3.3-3,3.1-4.7-.5-9.3-1-14-1.6-1-.1-2.2-.2-3.2-.6-3-1.3-1.9-6.2-1.9-8.7,0-4.6-.2-9.1.1-13.7Zm34.9,4.1c0-2.1.2-4.3,1-6.1,1.4-3.1,3.8-5.5,7.7-5.2,3.9.3,6.8,2.3,8.2,5.9,1.1,2.9,1.6,6.1,2,9.3.3,2.7,0,5.2,0,8.1h0c0,2.9,0,7.1,0,10.7,0,2.5-.8,3.6-3.5,3.1-3.8-.7-7.7-1.4-11.6-1.9-2.8-.4-4.1-1.6-4-4.6.1-6.4,0-12.8,0-19.2Zm29.4,4.7c.3-4.4,2.8-7.4,5.7-7.5,3-.1,6.7,3.3,7.1,7.3.6,5.1.7,10.3.9,15.4.1,2.8,0,5.6,0,8.5,0,2.4-.6,3.6-3.5,2.8-10.5-2.8-10.5-2.7-10.3-15.4,0-3.7-.2-7.4,0-11Zm23,7.2c0-2.7.1-6.1,3.5-6.5,3.5-.5,4.2,3.3,4.6,5.6,1.1,6.1.8,12.3.8,18.4,0,1.7,0,3.3,0,5,0,2.2-1.1,3-3,2-6-3.3-6.1-1.2-6-8.7,0-5.3,0-10.5,0-15.8Zm23,90.5c-2.3-.3-5.7.9-5.8-3.2-.1-4.3,0-8.8,0-12.7h0s0-7.6,0-8.3c0-1.8-.5-4.5.5-6.1,1.6-2.6,4.1.7,5,2.2,1.8,2.9,2.5,5.8,2.6,9.2.2,5.1,0,10.3,0,15.4,0,1.7.4,3.9-2.3,3.5Zm-24.3-20.8c0-3.9-.3-7.9.1-11.8.2-1.8,1.5-4.2,2.9-4.8,1.1-.5,4.2.8,4.8,2.1,1.5,3.4,2.6,7.1,2.9,10.7.5,5.5,0,11,.3,16.5.1,3-.8,4.5-4,3.9-.8-.2-1.7-.2-2.6-.2-3.5,0-4.7-1.6-4.5-5,.3-3.8,0-7.6,0-11.4Zm-21.2-2.3c0-3.7.2-7.5,1-11.1.5-2.6,1.3-5.8,4.3-6.5,3.8-.8,6.9,3.4,8,6.4,1.3,3.4,1.4,7.2,1.4,10.8s0,2.2,0,3.3c0,3.3,0,6.6,0,9.9,0,3.7-5.1,2.3-7.2,1.8-2.8-.6-7.5-.9-7.4-4.8,0-1.7,0-3.3,0-5,0-1.6,0-3.3,0-4.9Zm-30-15.1c0-4,1.1-7.2,5-9,3.9-1.8,7.2-.1,10.2,2.1,3.8,2.8,4.7,7.1,4.8,11.5.2,6.5,0,13,0,19.5,0,2.6-1,3.6-3.5,3.3-4.7-.7-9.5-1.1-14.2-2-.9-.2-2.2-1.9-2.3-2.9-.3-4-.1-8.1-.1-12.2s0-6.9,0-10.3Zm-12.1,21.4c0,2.6-.8,3.9-3.6,3.6-4.4-.3-8.8-.4-13.3-.6-2.8-.1-4.2-1.2-4-4.4.3-4,0-8.1,0-12.2s0-7.6,0-11.4c0-4.9,2.3-8.3,6.2-9.4,4.4-1.2,9.9.5,12,4.4,1.3,2.5,2.4,5.5,2.5,8.3.4,7.2,0,14.5.2,21.8Zm-33.5-2c0,2.6-.8,3.8-3.6,3.7-5.6-.2-11.3-.3-16.9-.3s-4.6-7.2-4.6-11.4c0-1.6-.2-3.4-.3-5.4-.6-7.9-1.1-17.7,5.9-21.7,5.4-3.2,13.2-1.8,16.7,3.7,2.8,4.4,3.1,9.7,3,14.8,0,5.5-.2,11.1,0,16.6Zm-64.7-23.8c.1-4.9,1.2-9.7,6-12.3,8.1-4.4,17.3.7,18.2,10.2.4,4.4,0,9.3,0,13.2h.1c0,3.9,0,7.6,0,11.4,0,2.4-.7,3.7-3.3,3.6-5.9-.2-11.8-.2-17.7-.2-2.4,0-3.6-.9-3.5-3.5.1-7.5,0-15,.1-22.5Zm-42.8,11.8c0-6.3.3-12.5,1.9-18.6,1.6-6.1,6.9-8.4,14.5-7.8,5.3.5,10.4,4.6,10.7,10,.6,9.7.5,19.4.5,29.1,0,.9-1.9,2.6-3,2.6-7.1.2-14.3,0-21.4.1-3.4,0-3.2-2.8-3.2-5.4,0-3.3,0-6.7,0-10.1Zm-39-10.9c.1-6.1,1.7-11.4,8.1-13.9,7.5-3,15.4,1.8,15.9,10,.2,4.4,0,9.3,0,13.2h0c0,3.9,0,8.2,0,12.2,0,2.5-.7,3.6-3.3,3.6-5.6,0-11.3,0-16.9.2-2.7,0-4-.8-3.9-3.8.2-7.1,0-14.2,0-21.4Zm-40.5,1.7c.3-3.8,1.9-7.9,3.9-11.2,3.4-5.5,15.9-6.4,19.5,1.1.8,1.7,1.2,3.5,1.3,5.4.2,4.2,0,8.4,0,12.3h0c0,4.9,0,8.6,0,12.8,0,2.7-.8,4.2-3.8,4.2-5.8,0-11.6.1-17.3.3-2.8,0-4-.9-4-3.8.1-7-.4-14,.2-21Zm-13,22.1c0,2.8-1,4.1-3.8,4.1-4.3.1-8.6.6-12.9.4-1.3,0-3.6-1.5-3.6-2.3.1-9.3.2-18.6,1.1-27.8.4-4.2,3.8-7,8.3-7.8,3.6-.6,7-.5,9.2,2.9.9,1.4,1.5,3.4,1.6,5.1.2,4.3,0,8.6,0,12.9,0,4.2,0,8.4,0,12.5Zm-52.7-16.6c.1-6.2,3.4-10.7,8.9-12.7,5.8-2,11.2,1.7,11.6,7.9,0,2,0,3.9,0,5.8,0,2,0,3.9,0,5.8h0c0,3.9-.1,7.4,0,11.1,0,2.4-.7,3.6-3.2,3.9-4.6.4-9.2,1.2-13.9,1.8-2.4.3-3.6-.3-3.5-3.1.2-6.9,0-13.7.1-20.6Zm-10.9,23.9c-1.4,1.9-5.6,2-7.8,2.3-1.6.2-4,1.3-5.2-.3-.9-1.2-.6-3.4-.6-4.8.1-3.3.2-6.5.2-9.8,0-3.8-.2-8.3,1.3-11.8,1.2-2.9,4-5.9,7.4-5.4,4,.5,4.9,3.8,5.2,7,.3,3.4.4,7,.4,10.6,0,2.1,0,4.2,0,6.3,0,1.9.2,4.3-1,6Zm-20.4,2.4c0,2.6-.9,3.7-3.6,3.9-2.4.2-7,1.6-7.3-1.8-.3-3.5,0-7.1,0-10.6,0-3.7,0-7.5.6-11.1.6-3.2,3.2-13,8.2-8.9,1.7,1.4,1.9,3.4,2,5.5.2,3.7.1,7.3,0,11,0,4-.1,8.1,0,12.1Zm-18.8-67.9c0,4.8,0,9.7-.4,14.5,0,.1,0,.2,0,.3-.3,1.9-1.7,3.3-3.5,4-4.2,1.5-3.2-2-3.1-4.9,0-2.6,0-5.3.2-7.9.2-3.9.5-7.9,1.1-11.7.3-1.9,1.6-6.8,4.2-4,2.3,2.4,1.5,6.8,1.5,9.8Zm335.1,136.6c-5.3-.1-10.6-.1-15.8,0-2.9,0-3.9-1.2-3.8-4,.1-4.8,0-9.4,0-14.3h0v-11.5c0-8.1,3.6-13.4,9.2-13.8,6.8-.5,12.7,4.9,13.5,12.8.5,5,.2,10,.3,15.1,0,4.2,0,8.3,0,12.5,0,2.3-.8,3.3-3.3,3.3Zm33.6-4.5c0,2.5-1.1,3.6-3.5,3.6-4.1,0-8.1,0-12.2,0-2.4,0-3.5-1.2-3.4-3.7.1-4.9,0-9.8,0-14.7h0c0-4.9-.2-9.1,0-13.6.2-2.5.8-5.2,2.1-7.3,3.1-4.9,10.2-4.5,13.4,1.1,1.9,3.4,3,7.6,3.2,11.4.5,7.7.1,15.5.2,23.2Zm25.7-.4c0,2.6-1.1,3.6-3.5,3.6-3.1,0-6.1,0-9.2,0-2.4,0-3.2-.9-3.2-3.3.1-4.9,0-9.8,0-14.7s-.2-9.5,0-14.2c.2-5.5,5.8-9.4,10.4-5.4,3.7,3.2,4.8,9.2,5.2,13.9.6,6.7,0,13.5.2,20.3Zm14.5,3.4c-8.8-.2-7.6,1.2-7.7-7.6,0-3.2,0-6.4,0-9.6,0-4.2-1-8.4-.3-12.6.4-2,1.1-4.5,3-5.7,5.8-3.7,8.2,8,8.4,11.5.3,6.9,0,13.8.2,20.7,0,2.7-1.1,3.4-3.5,3.3Zm13.9.1c-2.1,0-4.7.6-4.6-3,.1-5.9-.2-11.8-.4-17.7,0-2.4-.5-17.7,5.3-13.9,2.7,1.8,3.5,6.9,3.6,9.8.3,7.2.1,14.5.3,21.7,0,3.3-2,3.1-4.2,3Zm4.4-131.8c-.3,3.3-1,6.5-1.3,9.8,0,.4,0,.9-.2,1.4-.2.9-.7,1.7-1.7,1.5-1.3.3-3.1.4-4.4-.6,0,0-.2-.2-.4-.4-2.1-2.4,0-12.7-1.1-21.4-.3-2.8-1-5.5.4-6.6,2.3-1.7,5.3,0,6.9,1.7,2.1,2.3,2,5.6,2.1,8.5,0,2,0,4-.2,6Zm.7-26.8c-2.8-1.5-5.7-2.9-8.5-4.4-19.2-10.7-39.5-18.9-60.5-25.3-17.8-5.4-35.8-9.5-54.1-12.6-32.5-5.6-65.2-8.2-98.1-7.5-28.7.6-57.3,2.4-85.7,6.5-15.3,2.2-30.7,4.5-45.7,8.3-17.7,4.5-35.2,10-52.4,16.1-11,3.9-21.3,9.7-31.9,14.6-.5.2-1.1.2-2.1-.5,3.9-2.4,7.7-5.1,11.8-7.3,19.9-10.8,41-18.8,62.8-24.8,17.2-4.8,34.9-8.3,52.5-11.5,34.2-6.2,68.8-8.4,103.6-8.3,23.9,0,47.7,1.9,71.2,6.1,15,2.7,30,5.5,44.7,9.3,20.8,5.4,41.1,12.4,60.3,22.1,11.1,5.6,21.8,11.7,32.8,17.6-.2.5-.5,1.1-.7,1.6Zm-433.7-29l.4-13.1c0-1.3,1.1-2.3,2.4-2.2h.9c1.3,0,2.3,1.1,2.2,2.4l-.4,13.1c0,1.3-1.1,2.3-2.4,2.2h-.9c-1.3,0-2.3-1.1-2.2-2.4Zm35.9-37.2c0-1.8,1.4-3.2,3.2-3.3h3c1.8,0,3.2,1.3,3.3,3.1l.2,14.5-9.4.2-.2-14.5Zm61.4-25.5l5.3-.8c1.8-.3,3.4.9,3.7,2.7l1.9,12.7-6.4,1h0c-2.1.9-3.4.9-4.2.9h-1.1s-1.9-12.7-1.9-12.7c-.3-1.8.9-3.5,2.7-3.7Zm73.5-6.4c0-1.8,1.4-3.2,3.2-3.2h7.8c1.8,0,3.2,1.3,3.2,3.1v12.6c.1,0-14.1.1-14.1.1v-12.6Zm74.8,0c0-1.8,1.4-3.2,3.2-3.2h7.8c1.8,0,3.2,1.3,3.2,3.1v12.6c.1,0-14.1.1-14.1.1v-12.6Zm76.1,22.6l2.5-12.4c.3-1.7,2-2.9,3.8-2.5l5.2,1c1.7.3,2.9,2,2.5,3.8l-2.5,12.4-11.5-2.3Zm62,23.7l.8-14.9c0-1.8,1.6-3.1,3.4-3l4.6.2c1.8,0,3.1,1.6,3,3.4l-.8,14.9-11.1-.6Zm39.8,24.6l.8-14.9c0-1.8,1.6-3.1,3.4-3h1.3c1.8.2,3.1,1.7,3,3.4l-.8,14.9-7.7-.4Zm5.3-34.2c-16.3-17.8-36.3-30.2-58.2-39.7-17.5-7.6-35.7-13-54.3-17-31-6.7-62.4-9.7-94.1-9.8-19.9,0-39.8.7-59.7,2.3-18.7,1.5-37.2,4.7-55.5,9.6-18.1,4.8-35.6,10.9-52.4,19.2-23.4,11.6-43.8,26.9-60,47.6-1,1.3-2.1,2.6-3.2,3.9-.3-.2-.7-.5-1-.7,3-4.2,5.8-8.5,9.1-12.4,18-21.5,40.3-37.1,65.6-48.8,14.5-6.8,29.5-12.1,45-16.1,27.1-7,54.7-10.5,82.7-11.5,28-1,55.9-.3,83.6,3.3,16.5,2.2,32.9,5.8,49.1,9.6,22.6,5.2,44,13.9,63.9,25.7,17.9,10.6,33.9,23.4,46.2,40.4.3.4.4.8.6,1.3,0,0,0,.2-.3.9-2.5-2.6-4.9-5.1-7.2-7.6Zm7.8,137.7c.2-1.5.8-3.2,2.2-2.2.5.4.9,1.4,1.1,1.9.9,2.1,1.1,4.4,1.3,6.6.2,3.6.3,7.1.4,10.7,0,1.6,0,3.1.2,4.6.1,1.5.5,4.8-1.7,5.2-1.8.3-3.4-2.7-3.4-4.2-.1-7.6-1.2-15.2,0-22.8Zm3,83.3c-2.4.1-2.9-1.3-2.9-3.3,0-8.4-.1-16.7-.1-25.1,0-1.8-.4-4.5,1.1-5.9.9-.9,1.8-.7,2.5.3,1.3,1.8,1.2,4.7,1.4,6.9.8,7.8,1.1,15.8,1.4,23.7,0,2.4-1.2,3.3-3.4,3.4Zm8.5-4.9c-.2,1.5-.7,3.2-1.5,4.5-.8-3.9-2.1-10.5-2.2-17,0-1.7,0-1.4,0-3.5,0-1.9-.2-8.3,1-10.5.7-1.3,1.5-.3,1.9.6,1.4,3.2,1.2,6.9,1.3,10.3.3,5.1.3,10.4-.5,15.5Zm3.1-63.9c-.2,4.9,0,9.9,0,14.8s-3.6,1.8-4.1-.3c-.5-2,0-4.5,0-6.5,0-3.8,0-7.6,0-11.4,0-1.6,0-3.2,0-4.8s-.2-1.8.2-2.5c.6-1.1,1.8-.5,2.4.2,2.4,2.9,1.7,7,1.6,10.5Z" style="fill: #dd6b26; stroke-width: 0px;"/>
</svg>